PathFileType	4	(X/Y/Z)	71_2_26_p1_0-214.trc
DataRate	CameraRate	NumFrames	NumMarkers	Units	OrigDataRate	OrigDataStartFrame	OrigNumFrames
46.0	46.0	5	27	m	46.0	188	215
Frame#	Time	RHip			RKnee			RAnkle			RBigToe			RSmallToe			RHeel			LHip			LKnee			LAnkle			LBigToe			LSmallToe			LHeel			Neck			Head			Nose			RShoulder			RElbow			RWrist			RThumb			RIndex			RPinky			LShoulder			LElbow			LWrist			LThumb			LIndex			LPinky			
		X1	Y1	Z1	X2	Y2	Z2	X3	Y3	Z3	X4	Y4	Z4	X5	Y5	Z5	X6	Y6	Z6	X7	Y7	Z7	X8	Y8	Z8	X9	Y9	Z9	X10	Y10	Z10	X11	Y11	Z11	X12	Y12	Z12	X13	Y13	Z13	X14	Y14	Z14	X15	Y15	Z15	X16	Y16	Z16	X17	Y17	Z17	X18	Y18	Z18	X19	Y19	Z19	X20	Y20	Z20	X21	Y21	Z21	X22	Y22	Z22	X23	Y23	Z23	X24	Y24	Z24	X25	Y25	Z25	X26	Y26	Z26	X27	Y27	Z27	
188	4.086956521739131	0.38408553388963235	0.2749281572000935	-0.2644689549993411	0.3744788205400813	0.45194513657071994	0.15313751246840043	0.399167463235523	0.7175522156386633	0.6065916885603759	0.3796181313431737	0.4373719548645099	0.6372986891507338	0.45361664724498657	0.491394564127613	0.6339609706249393	0.3828246259549845	0.8350095125846441	0.6578086082837126	0.17562505569845574	0.3291196864405037	-0.25846086705676674	0.18633641563146075	0.5026536898377914	0.1739154728274585	0.1874500182714398	0.7008028068144452	0.5955854347433178	0.20992162397176603	0.4594822541756529	0.6328297230589144	0.1405713448213775	0.5399269133240447	0.6385741924191913	0.20624978756792578	0.8014789703327576	0.6652249404648182	0.29577165703801594	0.15851171518787874	-0.8103075288699274	0.28299938105599065	0.06086334991205678	-1.0411079036937272	0.2750012384432889	0.020033508523463944	-0.8964633162994552	0.4583105419980261	0.1677887560988582	-0.726732257258816	0.520297235200295	0.2830984510785172	-0.4847217054961171	0.5194892337228639	0.09264538040426282	-0.30089032641010705	0.5222515899729276	-0.04576640741508926	-0.19933564492536335	0.5450244075518115	-0.05097024612704465	-0.16361523801900707	0.5933753402823766	0.043590896161609	-0.17636894933874653	0.12531255453713694	0.21360410726372622	-0.7307664297611829	0.07068105377001713	0.36726651256811027	-0.49462313690645926	-0.00914775375779088	0.15731460797878277	-0.35536138965800135	-0.04750214326435615	0.06561232861464103	-0.26317821661093554	-0.06799131463934185	0.07203954751160395	-0.2618543191214503	-0.08500084294921854	0.20650139583714933	-0.2668087826265957
189	4.108695652173913	0.3885014771423989	0.27625981794371773	-0.26096221547543175	0.3753332443396304	0.45493922997557856	0.1575380034599877	0.39910920645245607	0.7176641715418828	0.6065912326931668	0.3787308657834161	0.43480586030207496	0.6330311010073914	0.4499133981766318	0.4776275769232481	0.6301682742959063	0.38271675448080844	0.834962308623215	0.6577589245473536	0.17577356311163336	0.33160638502804524	-0.25100345831533444	0.18710650144844154	0.5055051299143039	0.17794103667526281	0.18739306276884263	0.7007585924535225	0.5956553972823443	0.20983073710035527	0.459582788514957	0.6328758427063363	0.1405274085859634	0.5398539173299668	0.6385805454211697	0.20104887502295948	0.7977726864318043	0.6644776196436732	0.29572354199014333	0.15859065169661668	-0.8103275100582096	0.28299773815811263	0.06080053908863855	-1.0411073934282784	0.2750777464970583	0.02008257625249494	-0.8964068415910005	0.4582701713831563	0.16792109072680605	-0.7267538889278461	0.5208283177215502	0.28387739866402834	-0.4811056233991955	0.5199323328546672	0.09482816644422608	-0.29381128749413193	0.5195074043340783	-0.04068898410271846	-0.16482831919523536	0.5427121652411777	-0.03639219190034068	-0.1522389469074928	0.5920303768526101	0.07545644849261054	-0.14985774271971677	0.1252829882000228	0.2134064045911134	-0.7307083758170906	0.0681757809510261	0.3544016988473652	-0.48933427731353296	0.00040161287138941833	0.15025183500443615	-0.3409417767787111	-0.03057898499951196	0.04755703449269985	-0.24947605369794149	-0.058024217927912874	0.06874676376087387	-0.2435193846826528	-0.06867846500905757	0.17139474338117677	-0.24541346695138727
190	4.130434782608695	0.39214353787886247	0.2635123120394282	-0.25733512266272746	0.375457111805869	0.45528378698842475	0.1575110851014123	0.39914512126257634	0.7175771785503919	0.6065892282973905	0.3796439533984006	0.43706442521887884	0.6373042396128843	0.4535873047963582	0.49117375637574673	0.6340066221010093	0.3828175362501898	0.8349698793736322	0.6577392658419539	0.17321570265624753	0.3177379171604743	-0.25067573612934185	0.1906034107408177	0.5193811362556425	0.17562639307932726	0.18738662304608186	0.7008695042413801	0.595572836182553	0.2098320211350611	0.45954568030655263	0.6328536851541076	0.14046274589695065	0.5399433124513399	0.6385738077996674	0.2009782488435283	0.7970184636497353	0.6642233806998439	0.2956611439155506	0.15845524953029338	-0.8103470626522633	0.2830740059708275	0.06114308828117944	-1.0412632974126537	0.27907443688813055	0.020173682302978904	-0.896627131261724	0.45870151962843153	0.16948374324901183	-0.7233345118734941	0.5238741505378095	0.2711139678036472	-0.4766010496462017	0.5201071085803947	0.09741988753850009	-0.27912183443525895	0.5168823168260412	-0.01922225940122439	-0.14799284067013974	0.5434915887090475	-0.03217836223447657	-0.14120359035000266	0.5884740376054145	0.0783731160123476	-0.14161398579051573	0.12519250484351435	0.21347272861974873	-0.7306508568771735	0.06372507020381223	0.35400270746123164	-0.4810832027538966	0.00019277612541907692	0.15178515761078684	-0.32792001054744363	-0.008256995408416436	0.02440550232029178	-0.2387185061706213	-0.04816613888348798	0.06317789336165718	-0.2338008282610298	-0.05513006217691435	0.16371921373054293	-0.23200042955408767
191	4.1521739130434785	0.388441241212092	0.29020086180373716	-0.2534540680140896	0.3814634170086739	0.4751492385652822	0.16775038567871497	0.4033189601066506	0.7343544438887216	0.6106801363403466	0.3829810554498018	0.4514848893040919	0.6413769527705996	0.4535913595560153	0.4914166397655194	0.6340684335241422	0.38276271067053974	0.8350010016237617	0.6575908814932399	0.17297134298196182	0.31684655762567415	-0.25469722866806443	0.1906854125023579	0.5195930861237471	0.1756463825245899	0.18736078576162102	0.7010028582026665	0.5956881379483998	0.20989511323740975	0.45955136065767654	0.6329018030291022	0.1405076428080271	0.539950600362671	0.6386168450098103	0.2006982249461332	0.7964452943700235	0.6641998461371807	0.2957046095111775	0.15853702853530008	-0.8103728925116289	0.2831492231340526	0.06131096171975793	-1.0413352976219998	0.27904249204157827	0.02023178643331217	-0.896644292266542	0.45864126844315406	0.16951620823674457	-0.7233132826257667	0.5239699210017037	0.2714286972295625	-0.46878463956692606	0.5175788524651297	0.0916950333161038	-0.2534610860441331	0.5053538535531863	0.015386883727897734	-0.1318491665228529	0.5389664106600941	-0.018151884159859404	-0.11574672522815052	0.5869995679062084	0.07942981053165347	-0.13073546401541378	0.12530428940351462	0.21361581098682894	-0.7307130526949602	0.0633679173549315	0.35299176380430375	-0.48486493300651007	0.019117732436830667	0.10909487491670486	-0.3170942478890255	0.005961385943603106	0.031887305011412015	-0.22276789065549768	-0.04225707115997624	0.057267661950795176	-0.21133060878515333	-0.04625596480082583	0.16489304382839143	-0.21589310990908392
192	4.173913043478261	0.38812349799894375	0.28972479599482354	-0.2572649431579784	0.3752711502287057	0.4579913307152079	0.1624782012267196	0.3990965968389184	0.7178907802949659	0.6066273130657175	0.38425929871714526	0.4395082069538693	0.6377489785806407	0.44959946870946466	0.4784279015380609	0.6262793249305171	0.38274164413471357	0.8350667149488167	0.6576594317872496	0.1827955836437757	0.3311938199003274	-0.2552537674395051	0.18887215750782754	0.5178267358584625	0.1717705120217205	0.18744235448389537	0.7008981875049899	0.595618242098478	0.2099338461880791	0.4595100612208393	0.6329016622260242	0.14055832633675874	0.5398369344533447	0.6384207528227926	0.1990944407068393	0.7992906599098851	0.6651292633952893	0.2917190246633895	0.1576177300258139	-0.8100045231230494	0.2832121208362263	0.06245215248322374	-1.0386348944914137	0.2831209083746598	0.02007592608141209	-0.8967162664344841	0.455035621920506	0.1825364271639457	-0.7252264260810568	0.5241832918992299	0.2718136433173341	-0.4653125478186871	0.5153425533532644	0.0845312234849569	-0.2429579476348928	0.49752238828511364	-0.03627811018769059	-0.11857029003005659	0.5311948024874276	-0.011955467624792888	-0.09068914723151962	0.5538934812207073	0.12423112001599956	-0.1050405901964117	0.12552464193408353	0.21418354057705097	-0.7273465237830808	0.06322057120212726	0.3529057924694489	-0.4847463788133418	0.025631612840813205	0.10095146701897142	-0.30458030253443275	0.02664380934023316	0.04092632079571383	-0.20694043403152995	-0.01659299993216653	0.017191192686006378	-0.19831913210222246	-0.03875671339105166	0.14496494205205127	-0.19816692638213562
